<?xml version="1.0" encoding="UTF-8" standalone="no"?>
<svg
   xmlns:osb="http://www.openswatchbook.org/uri/2009/osb"
   xmlns:dc="http://purl.org/dc/elements/1.1/"
   xmlns:cc="http://creativecommons.org/ns#"
   xmlns:rdf="http://www.w3.org/1999/02/22-rdf-syntax-ns#"
   xmlns:svg="http://www.w3.org/2000/svg"
   xmlns="http://www.w3.org/2000/svg"
   xmlns:xlink="http://www.w3.org/1999/xlink"
   xmlns:sodipodi="http://sodipodi.sourceforge.net/DTD/sodipodi-0.dtd"
   xmlns:inkscape="http://www.inkscape.org/namespaces/inkscape"
   inkscape:version="1.0 (4035a4fb49, 2020-05-01)"
   sodipodi:docname="aquaprojectsicon.svg"
   id="svg34"
   version="1.1"
   viewBox="0 0 768.00121 768.00114"
   height="1024"
   width="1024"
   inkscape:export-filename="C:\Users\jacki\Desktop\aquaprojectsicon.png"
   inkscape:export-xdpi="96"
   inkscape:export-ydpi="96">
  <metadata
     id="metadata38">
    <rdf:RDF>
      <cc:Work
         rdf:about="">
        <dc:format>image/svg+xml</dc:format>
        <dc:type
           rdf:resource="http://purl.org/dc/dcmitype/StillImage" />
        <dc:title />
      </cc:Work>
    </rdf:RDF>
  </metadata>
  <sodipodi:namedview
     inkscape:current-layer="svg34"
     inkscape:window-maximized="1"
     inkscape:window-y="-6"
     inkscape:window-x="-6"
     inkscape:cy="686.93094"
     inkscape:cx="-139.61115"
     inkscape:zoom="0.35355339"
     inkscape:snap-page="true"
     inkscape:snap-nodes="false"
     inkscape:snap-bbox="false"
     inkscape:lockguides="false"
     showgrid="false"
     id="namedview36"
     inkscape:window-height="850"
     inkscape:window-width="1368"
     inkscape:pageshadow="2"
     inkscape:pageopacity="0"
     guidetolerance="10"
     gridtolerance="10"
     objecttolerance="10"
     borderopacity="1"
     bordercolor="#666666"
     pagecolor="#ffffff"
     inkscape:document-rotation="0"
     units="px" />
  <defs
     id="defs30">
    <linearGradient
       osb:paint="solid"
       id="linearGradient2869">
      <stop
         id="stop2867"
         offset="0"
         style="stop-color:#0033ff;stop-opacity:1;" />
    </linearGradient>
    <linearGradient
       y2="1"
       x2="1"
       y1="0"
       x1="0"
       id="grad1">
      <stop
         id="stop25"
         style="stop-color: #75E9FF;stop-opacity:1;"
         offset="0%" />
      <stop
         id="stop27"
         style="stop-color: #0033ff;stop-opacity:1;"
         offset="100%" />
    </linearGradient>
    <linearGradient
       gradientTransform="matrix(0.74398186,0,0,0.74517807,1.2327332,3.1591797e-6)"
       gradientUnits="userSpaceOnUse"
       y2="1030.6278"
       x2="1030.6248"
       y1="0.0033138569"
       x1="-1.6510888"
       id="linearGradient2961"
       xlink:href="#grad1"
       inkscape:collect="always" />
  </defs>
  <rect
     y="-2.8421709e-14"
     x="-2.8421709e-14"
     height="768.00116"
     width="768.00116"
     id="rect913"
     style="opacity:1;mix-blend-mode:normal;fill:url(#linearGradient2961);fill-opacity:1;stroke:none;stroke-width:0.558436;stroke-miterlimit:4;stroke-dasharray:none" />
  <path
     id="Selection #3"
     fill="#ffffff"
     stroke="#000000"
     stroke-width="0"
     d="m 436.96334,149.16328 c 0,22.04788 0.47261,44.08077 -1.6279,66.01613 -3.63839,38.02679 -11.98793,82.88774 -21.15516,120.02931 0,0 -6.5641,24.00587 -6.5641,24.00587 0,0 -14.41102,51.01246 -14.41102,51.01246 -1.2228,3.76593 -4.30606,16.18145 -6.72914,18.37199 -2.4381,2.20554 -5.77641,1.71791 -8.77715,2.01048 0,0 -18.0044,1.40284 -18.0044,1.40284 0,0 -16.50402,1.40284 -16.50402,1.40284 0,0 -39.7597,3.6309 -39.7597,3.6309 -6.97671,1.14027 -17.37425,3.18827 -22.34796,8.51458 -4.71114,5.04874 -4.59862,16.86412 1.41035,20.93761 4.10349,2.77568 15.13869,3.73591 20.18742,3.74342 0,0 40.50989,-0.8177 40.50989,-0.8177 0,0 32.25788,-2.93322 32.25788,-2.93322 0,0 -8.75465,27.75678 -8.75465,27.75678 -10.93017,32.79801 -26.87906,64.98087 -53.51056,87.86897 -12.73061,10.93766 -28.53697,20.12741 -45.76117,20.15742 0,0 -8.25201,0 -8.25201,0 -21.18517,-0.0301 -33.46566,-10.72012 -41.11003,-30.00734 0,0 -6.60162,-18.00439 -6.60162,-18.00439 -4.14851,-10.37504 -7.35179,-16.354 -19.80483,-16.50403 -3.00824,-0.0301 -6.93169,-0.23256 -9.75238,0.68266 -8.91217,2.89571 -14.14845,12.06295 -14.25348,21.07265 0,0 0,7.50183 0,7.50183 0.03,19.81985 10.98269,38.49941 27.75677,48.90444 12.61808,7.81691 30.87004,13.18073 45.76118,13.36077 20.22494,0.23256 35.82874,0.0825 55.51354,-6.01646 40.96751,-12.70061 70.4347,-46.69891 89.08425,-84.00553 0,0 10.69011,-24.75604 10.69011,-24.75604 0,0 11.26775,-32.25789 11.26775,-32.25789 1.6729,-5.37881 4.75616,-14.15595 5.23628,-19.50476 0,0 17.25421,-0.75018 17.25421,-0.75018 0,0 17.25421,0 17.25421,0 0,0 12.75312,-0.75018 12.75312,-0.75018 0,0 36.00878,0 36.00878,0 0,0 2.8732,30.75752 2.8732,30.75752 0,0 3.19578,39.00952 3.19578,39.00952 0,0 1.43284,21.75531 1.43284,21.75531 0,0 0.75019,9.75239 0.75019,9.75239 0,0 0.75018,15.75385 0.75018,15.75385 0.015,6.41407 1.1853,13.60831 3.78093,19.50475 4.74866,10.78014 18.13192,15.61882 29.22714,15.75385 0,0 14.25347,0 14.25347,0 14.22348,-0.0225 25.04111,-3.39834 37.50916,-9.91741 2.50561,-1.31282 10.35252,-5.02624 10.35252,-8.11699 0.007,-1.41035 -5.46133,-8.02696 -6.76665,-10.47255 -3.44333,-6.47408 -8.41705,-19.17469 -10.54757,-26.25643 -9.91742,-32.92554 -16.70658,-66.56375 -21.98037,-100.52454 -5.3638,-34.58345 -9.24975,-69.41446 -11.63534,-104.27548 0,0 -1.43285,-25.50622 -1.43285,-25.50622 0,0 -0.75018,-12.75312 -0.75018,-12.75312 0,0 0,-27.75678 0,-27.75678 0,0 -0.75018,-11.25274 -0.75018,-11.25274 0,0 0,-111.77731 0,-111.77731 0,-2.21304 0.15754,-4.71865 -0.87771,-6.74415 -2.76068,-5.36381 -17.9969,-11.5078 -23.87834,-13.5108 -12.96316,-4.41107 -19.25719,-6.02397 -33.00805,-6.00146 -11.61284,0.015 -19.13717,4.83869 -30.00732,7.70438 0,0 -21.75531,2.79818 -21.75531,2.79818 z m 29.25713,117.02858 c 0,0 4.65114,20.25495 4.65114,20.25495 0,0 7.41181,42.76045 7.41181,42.76045 0,0 9.15223,63.76558 9.15223,63.76558 0,0 3.54087,36.75897 3.54087,36.75897 0,0 -69.01684,0 -69.01684,0 0.37509,-8.16949 7.86941,-34.19336 10.39003,-43.51062 0,0 18.01189,-68.26668 18.01189,-68.26668 0,0 9.85742,-33.75824 9.85742,-33.75824 1.2528,-4.35107 3.91594,-14.59857 6.00145,-18.00441 z" />
</svg>
