<?xml version="1.0" encoding="UTF-8" standalone="no"?>
<svg
   xmlns:dc="http://purl.org/dc/elements/1.1/"
   xmlns:cc="http://creativecommons.org/ns#"
   xmlns:rdf="http://www.w3.org/1999/02/22-rdf-syntax-ns#"
   xmlns:svg="http://www.w3.org/2000/svg"
   xmlns="http://www.w3.org/2000/svg"
   xmlns:sodipodi="http://sodipodi.sourceforge.net/DTD/sodipodi-0.dtd"
   xmlns:inkscape="http://www.inkscape.org/namespaces/inkscape"
   inkscape:version="1.0 (4035a4fb49, 2020-05-01)"
   sodipodi:docname="aquaprojectsicon.svg"
   id="svg11"
   version="1.1"
   viewBox="0 0 768.00118 768.00118"
   height="1024"
   width="1024">
  <metadata
     id="metadata15">
    <rdf:RDF>
      <cc:Work
         rdf:about="">
        <dc:format>image/svg+xml</dc:format>
        <dc:type
           rdf:resource="http://purl.org/dc/dcmitype/StillImage" />
        <dc:title></dc:title>
      </cc:Work>
    </rdf:RDF>
  </metadata>
  <sodipodi:namedview
     inkscape:current-layer="svg11"
     inkscape:window-maximized="1"
     inkscape:window-y="-6"
     inkscape:window-x="-6"
     inkscape:cy="811.59997"
     inkscape:cx="428.75546"
     inkscape:zoom="0.33508965"
     units="px"
     showgrid="false"
     id="namedview13"
     inkscape:window-height="850"
     inkscape:window-width="1368"
     inkscape:pageshadow="2"
     inkscape:pageopacity="0"
     guidetolerance="10"
     gridtolerance="10"
     objecttolerance="10"
     borderopacity="1"
     bordercolor="#666666"
     pagecolor="#ffffff" />
  <defs
     id="defs7">
    <linearGradient
       gradientUnits="userSpaceOnUse"
       gradientTransform="matrix(0.60064846,0,0,0.60064845,76.800118,76.673969)"
       y2="1024.105"
       x2="1023.895"
       y1="0.21002104"
       x1="-4.9994873e-07"
       id="grad1">
      <stop
         id="stop2"
         style="stop-color: #75E9FF;stop-opacity:1;"
         offset="0%" />
      <stop
         id="stop4"
         style="stop-color: #0033ff;stop-opacity:1;"
         offset="100%" />
    </linearGradient>
  </defs>
  <path
     style="fill:url(#grad1)"
     d="m 365.08181,76.800118 c 0,0 -6.60645,0.576681 -6.60645,0.576681 0,0 -21.02055,2.553018 -21.02055,2.553018 -19.80135,3.075635 -38.77388,7.857287 -57.65633,14.579233 -40.17927,14.30291 -77.31355,37.38218 -108.10564,66.84101 0,0 -5.38125,4.85374 -5.38125,4.85374 0,0 -4.85275,5.38236 -4.85275,5.38236 -22.69017,23.72805 -42.52155,52.40594 -56.24496,82.29728 -12.780486,27.83089 -21.20672,56.19642 -25.572986,86.50224 0,0 -2.840776,29.4348 -2.840776,29.4348 0,0 0,28.83408 0,28.83408 0,0 0.546534,7.20852 0.546534,7.20852 0,0 3.609526,30.63621 3.609526,30.63621 8.083901,48.84975 28.840182,95.83728 58.833492,135.15976 17.70529,23.20543 38.44957,43.42533 61.93252,60.74381 25.35077,18.68808 54.20896,33.62174 84.08215,43.58151 23.34482,7.77919 45.21219,12.2725 69.66808,14.71739 0,0 13.21292,1.0993 13.21292,1.0993 0,0 30.02934,0 30.02934,0 0,0 7.20704,-0.54664 7.20704,-0.54664 23.26674,-1.5979 46.10705,-5.76682 68.4669,-12.50078 45.68665,-13.76227 88.07006,-38.67372 122.51973,-71.62867 0,0 5.38125,-4.85373 5.38125,-4.85373 0,0 4.85274,-5.38236 4.85274,-5.38236 29.45278,-30.7984 52.52733,-67.94032 66.8273,-108.12782 7.11695,-20.01565 11.96369,-39.65287 14.99065,-60.67171 0,0 2.84077,-29.43479 2.84077,-29.43479 0,0 0,-30.03551 0,-30.03551 0,0 -0.54653,-6.00709 -0.54653,-6.00709 -1.25523,-18.29764 -4.08399,-36.24685 -8.54035,-54.06391 -12.7985,-51.21653 -39.1042,-98.82282 -75.57184,-136.96189 0,0 -4.85274,-5.38236 -4.85274,-5.38236 0,0 -5.38125,-4.85374 -5.38125,-4.85374 C 563.62381,129.51242 524.62771,106.43915 480.99507,91.889954 456.6653,83.780368 431.47669,78.980695 405.92172,77.220615 c 0,0 -7.20704,-0.420497 -7.20704,-0.420497 0,0 -33.63287,0 -33.63287,0 z"
     stroke-width="0"
     stroke="#000000"
     fill="url(#grad1)"
     id="Selection" />
  <path
     d="m 407.72348,201.62167 c 0,17.65486 0.37837,35.29772 -1.30328,52.86247 -2.91284,30.45 -9.59738,66.37246 -16.93654,96.11362 0,0 -5.25514,19.22272 -5.25514,19.22272 0,0 -11.53727,40.84828 -11.53727,40.84828 -0.97895,3.01556 -3.44737,12.95731 -5.38726,14.71139 -1.95191,1.76609 -4.62453,1.37562 -7.02687,1.6099 0,0 -14.41408,1.12332 -14.41408,1.12332 0,0 -13.21292,1.12335 -13.21292,1.12335 0,0 -31.8311,2.90742 -31.8311,2.90742 -5.58546,0.91308 -13.90959,2.55303 -17.89148,6.81806 -3.77169,4.04277 -3.6816,13.50396 1.1291,16.76582 3.2852,2.22262 12.11984,2.99154 16.16179,2.99754 0,0 32.43169,-0.65477 32.43169,-0.65477 0,0 25.82524,-2.34878 25.82524,-2.34878 0,0 -7.00885,22.22627 -7.00885,22.22627 -8.75055,26.26305 -21.51902,52.03351 -42.83987,70.36116 -10.19195,8.75836 -22.84632,16.11706 -36.63579,16.14109 0,0 -6.60645,0 -6.60645,0 -16.96058,-0.024 -26.79218,-8.58414 -32.91216,-24.0284 0,0 -5.28517,-14.41704 -5.28517,-14.41704 -3.32124,-8.30782 -5.88575,-13.09548 -15.85549,-13.21562 -2.40836,-0.024 -5.54942,-0.18622 -7.80764,0.54665 -7.13497,2.31874 -11.32706,9.65941 -11.41114,16.87395 0,0 0,6.00708 0,6.00708 0.024,15.87077 8.79259,30.82845 22.22171,39.16029 10.10187,6.25941 24.71415,10.55449 36.6358,10.69865 16.19182,0.18623 28.68403,0.0661 44.44343,-4.81769 32.79804,-10.17001 56.3891,-37.3942 71.31969,-67.26752 0,0 8.55836,-19.82342 8.55836,-19.82342 0,0 9.02081,-25.83054 9.02081,-25.83054 1.33931,-4.30708 3.80772,-11.3354 4.1921,-15.61846 0,0 13.81349,-0.6007 13.81349,-0.6007 0,0 13.8135,0 13.8135,0 0,0 10.20999,-0.60072 10.20999,-0.60072 0,0 28.82816,0 28.82816,0 0,0 2.30024,24.62912 2.30024,24.62912 0,0 2.5585,31.23692 2.5585,31.23692 0,0 1.14713,17.42059 1.14713,17.42059 0,0 0.60059,7.80922 0.60059,7.80922 0,0 0.60058,12.61492 0.60058,12.61492 0.012,5.13608 0.94893,10.89688 3.02696,15.61846 3.80171,8.6322 14.51618,12.50678 23.39887,12.61491 0,0 11.41114,0 11.41114,0 11.38713,-0.0181 20.04759,-2.72121 30.02935,-7.94138 2.00596,-1.05125 8.2881,-4.02476 8.2881,-6.4997 0.005,-1.12932 -4.37227,-6.42759 -5.4173,-8.38589 -2.75669,-5.18413 -6.73858,-15.35416 -8.44424,-21.02486 -7.93976,-26.36517 -13.37507,-53.301 -17.5972,-80.49515 -4.2942,-27.69273 -7.40524,-55.5837 -9.31511,-83.4987 0,0 -1.14712,-20.42414 -1.14712,-20.42414 0,0 -0.60058,-10.21207 -0.60058,-10.21207 0,0 0,-22.22627 0,-22.22627 0,0 -0.60059,-9.01064 -0.60059,-9.01064 0,0 0,-89.50581 0,-89.50581 0,-1.77209 0.12612,-3.77846 -0.70268,-5.40039 -2.21016,-4.29507 -14.40808,-9.21489 -19.11669,-10.81878 -10.37814,-3.53217 -15.41707,-4.8237 -26.42582,-4.80568 -9.29708,0.012 -15.32097,3.87458 -24.02347,6.16929 0,0 -17.41702,2.24066 -17.41702,2.24066 z m 23.42289,93.71076 c 0,0 3.72363,16.21917 3.72363,16.21917 0,0 5.93381,34.24048 5.93381,34.24048 0,0 7.32715,51.06034 7.32715,51.06034 0,0 2.83478,29.4348 2.83478,29.4348 0,0 -55.254,0 -55.254,0 0.30029,-6.54173 6.30016,-27.38036 8.31813,-34.84119 0,0 14.42009,-54.6646 14.42009,-54.6646 0,0 7.89172,-27.03196 7.89172,-27.03196 1.00297,-3.48411 3.13506,-11.68982 4.80469,-14.41704 z"
     stroke-width="0"
     stroke="#000000"
     fill="#ffffff"
     id="Selection #3" />
</svg>
