<?xml version="1.0" encoding="UTF-8" standalone="no"?>
<!DOCTYPE svg PUBLIC "-//W3C//DTD SVG 20010904//EN" "http://www.w3.org/TR/2001/REC-SVG-20010904/DTD/svg10.dtd">

<svg xmlns="http://www.w3.org/2000/svg" width="14.2222in" height="14.2222in" viewBox="0 0 1024 1024">
   <defs xmlns="http://www.w3.org/2000/svg">
      <linearGradient id="grad1" x1="0%" y1="0%" x2="100%" y2="100%">
         <stop offset="0%" style="stop-color: #75E9FF;stop-opacity:1;"/>
         <stop offset="100%" style="stop-color: #0033ff;stop-opacity:1;"/>
      </linearGradient>
   </defs>
   <path id="Selection" fill="url(#grad1)" stroke="black" stroke-width="0" d="M 480.00,0.21
           C 480.00,0.21 469.00,1.17 469.00,1.17
             469.00,1.17 434.00,5.42 434.00,5.42
             401.03,10.54 369.44,18.50 338.00,29.69
             271.10,53.50 209.27,91.92 158.00,140.96
             158.00,140.96 149.04,149.04 149.04,149.04
             149.04,149.04 140.96,158.00 140.96,158.00
             103.18,197.50 70.16,245.24 47.31,295.00
             26.03,341.33 12.00,388.55 4.73,439.00
             4.73,439.00 0.00,488.00 0.00,488.00
             0.00,488.00 0.00,536.00 0.00,536.00
             0.00,536.00 0.91,548.00 0.91,548.00
             0.91,548.00 6.92,599.00 6.92,599.00
             20.38,680.32 54.94,758.54 104.88,824.00
             134.36,862.63 168.90,896.29 208.00,925.12
             250.21,956.23 298.26,981.09 348.00,997.67
             386.87,1010.62 423.28,1018.10 464.00,1022.17
             464.00,1022.17 486.00,1024.00 486.00,1024.00
             486.00,1024.00 536.00,1024.00 536.00,1024.00
             536.00,1024.00 548.00,1023.09 548.00,1023.09
             586.74,1020.43 624.77,1013.49 662.00,1002.28
             738.07,979.37 808.64,937.90 866.00,883.04
             866.00,883.04 874.96,874.96 874.96,874.96
             874.96,874.96 883.04,866.00 883.04,866.00
             932.08,814.73 970.50,752.90 994.31,686.00
             1006.16,652.68 1014.23,619.99 1019.27,585.00
             1019.27,585.00 1024.00,536.00 1024.00,536.00
             1024.00,536.00 1024.00,486.00 1024.00,486.00
             1024.00,486.00 1023.09,476.00 1023.09,476.00
             1021.00,445.54 1016.29,415.66 1008.87,386.00
             987.56,300.74 943.76,221.49 883.04,158.00
             883.04,158.00 874.96,149.04 874.96,149.04
             874.96,149.04 866.00,140.96 866.00,140.96
             810.58,87.96 745.65,49.55 673.00,25.33
             632.49,11.83 590.55,3.84 548.00,0.91
             548.00,0.91 536.00,0.21 536.00,0.21
             536.00,0.21 480.00,0.21 480.00,0.21 Z" />
   <path id="Selection #3" fill="white" stroke="black" stroke-width="0" d="M 551.00,208.00
           C 551.00,237.39 551.63,266.76 548.83,296.00
             543.98,346.69 532.85,406.49 520.63,456.00
             520.63,456.00 511.88,488.00 511.88,488.00
             511.88,488.00 492.67,556.00 492.67,556.00
             491.04,561.02 486.93,577.57 483.70,580.49
             480.45,583.43 476.00,582.78 472.00,583.17
             472.00,583.17 448.00,585.04 448.00,585.04
             448.00,585.04 426.00,586.91 426.00,586.91
             426.00,586.91 373.00,591.75 373.00,591.75
             363.70,593.27 349.84,596.00 343.21,603.10
             336.93,609.83 337.08,625.58 345.09,631.01
             350.56,634.71 365.27,635.99 372.00,636.00
             372.00,636.00 426.00,634.91 426.00,634.91
             426.00,634.91 469.00,631.00 469.00,631.00
             469.00,631.00 457.33,668.00 457.33,668.00
             442.76,711.72 421.50,754.62 386.00,785.13
             369.03,799.71 347.96,811.96 325.00,812.00
             325.00,812.00 314.00,812.00 314.00,812.00
             285.76,811.96 269.39,797.71 259.20,772.00
             259.20,772.00 250.40,748.00 250.40,748.00
             244.87,734.17 240.60,726.20 224.00,726.00
             219.99,725.96 214.76,725.69 211.00,726.91
             199.12,730.77 192.14,742.99 192.00,755.00
             192.00,755.00 192.00,765.00 192.00,765.00
             192.04,791.42 206.64,816.32 229.00,830.19
             245.82,840.61 270.15,847.76 290.00,848.00
             316.96,848.31 337.76,848.11 364.00,839.98
             418.61,823.05 457.89,777.73 482.75,728.00
             482.75,728.00 497.00,695.00 497.00,695.00
             497.00,695.00 512.02,652.00 512.02,652.00
             514.25,644.83 518.36,633.13 519.00,626.00
             519.00,626.00 542.00,625.00 542.00,625.00
             542.00,625.00 565.00,625.00 565.00,625.00
             565.00,625.00 582.00,624.00 582.00,624.00
             582.00,624.00 630.00,624.00 630.00,624.00
             630.00,624.00 633.83,665.00 633.83,665.00
             633.83,665.00 638.09,717.00 638.09,717.00
             638.09,717.00 640.00,746.00 640.00,746.00
             640.00,746.00 641.00,759.00 641.00,759.00
             641.00,759.00 642.00,780.00 642.00,780.00
             642.02,788.55 643.58,798.14 647.04,806.00
             653.37,820.37 671.21,826.82 686.00,827.00
             686.00,827.00 705.00,827.00 705.00,827.00
             723.96,826.97 738.38,822.47 755.00,813.78
             758.34,812.03 768.80,807.08 768.80,802.96
             768.81,801.08 761.52,792.26 759.78,789.00
             755.19,780.37 748.56,763.44 745.72,754.00
             732.50,710.11 723.45,665.27 716.42,620.00
             709.27,573.90 704.09,527.47 700.91,481.00
             700.91,481.00 699.00,447.00 699.00,447.00
             699.00,447.00 698.00,430.00 698.00,430.00
             698.00,430.00 698.00,393.00 698.00,393.00
             698.00,393.00 697.00,378.00 697.00,378.00
             697.00,378.00 697.00,229.00 697.00,229.00
             697.00,226.05 697.21,222.71 695.83,220.01
             692.15,212.86 671.84,204.67 664.00,202.00
             646.72,196.12 638.33,193.97 620.00,194.00
             604.52,194.02 594.49,200.45 580.00,204.27
             580.00,204.27 551.00,208.00 551.00,208.00 Z
           M 590.00,364.00
           C 590.00,364.00 596.20,391.00 596.20,391.00
             596.20,391.00 606.08,448.00 606.08,448.00
             606.08,448.00 618.28,533.00 618.28,533.00
             618.28,533.00 623.00,582.00 623.00,582.00
             623.00,582.00 531.00,582.00 531.00,582.00
             531.50,571.11 541.49,536.42 544.85,524.00
             544.85,524.00 568.86,433.00 568.86,433.00
             568.86,433.00 582.00,388.00 582.00,388.00
             583.67,382.20 587.22,368.54 590.00,364.00 Z" />
</svg>