<?xml version="1.0" encoding="UTF-8" standalone="no"?>
<!DOCTYPE svg PUBLIC "-//W3C//DTD SVG 20010904//EN"
              "http://www.w3.org/TR/2001/REC-SVG-20010904/DTD/svg10.dtd">

<svg xmlns="http://www.w3.org/2000/svg"
     width="4.05in" height="2.02in"
     viewBox="0 0 1215 606">
  <path id="Selection"
        fill="black" stroke="black" stroke-width="1"
        d="M 107.00,177.00
           C 107.46,201.31 105.75,219.22 100.12,243.00
             100.12,243.00 88.00,289.00 88.00,289.00
             88.00,289.00 53.00,291.81 53.00,291.81
             48.66,292.70 42.50,295.14 44.62,300.89
             46.07,304.87 50.47,304.95 54.00,304.95
             54.00,304.95 70.00,304.95 70.00,304.95
             70.00,304.95 83.00,304.00 83.00,304.00
             83.00,304.00 77.94,318.00 77.94,318.00
             73.08,330.82 66.21,342.92 55.00,351.24
             48.25,356.25 37.10,359.77 29.04,355.55
             24.36,353.09 21.50,347.74 19.68,343.00
             18.22,339.17 17.12,334.45 12.95,332.74
             11.58,332.17 9.48,331.99 8.00,332.07
             0.18,332.51 -0.14,338.82 0.01,345.00
             0.64,370.64 34.76,372.52 53.00,366.48
             73.34,359.75 84.39,341.86 91.80,323.00
             94.16,316.99 97.43,308.32 98.00,302.00
             98.00,302.00 131.00,302.00 131.00,302.00
             131.00,302.00 133.96,334.00 133.96,334.00
             134.18,339.08 134.30,352.89 136.45,356.96
             139.20,362.14 143.68,362.93 149.00,363.00
             160.00,363.14 164.72,362.63 174.00,356.00
             164.12,339.79 160.96,320.50 157.92,302.00
             157.92,302.00 152.91,254.00 152.91,254.00
             152.91,254.00 152.00,242.00 152.00,242.00
             152.00,242.00 152.00,189.00 152.00,189.00
             152.00,186.53 152.20,183.30 150.98,181.10
             147.43,174.70 134.64,172.85 128.00,173.01
             128.00,173.01 107.00,177.00 107.00,177.00 Z
           M 1081.00,223.00
           C 1073.81,223.00 1060.47,222.45 1054.02,224.14
             1048.20,225.66 1047.76,230.84 1052.15,234.30
             1058.57,239.37 1074.52,237.93 1078.40,242.43
             1081.40,245.90 1079.01,258.00 1079.00,263.00
             1078.96,290.00 1074.09,321.36 1084.45,347.00
             1088.93,358.09 1096.11,367.67 1109.00,367.99
             1114.32,368.11 1117.40,367.96 1121.99,364.89
             1128.36,360.63 1133.21,351.59 1137.00,345.00
             1139.01,348.72 1140.36,350.53 1144.00,352.87
             1154.67,359.73 1179.92,360.63 1192.00,357.52
             1199.45,355.61 1207.74,352.05 1210.06,344.00
             1212.30,336.20 1208.22,331.19 1203.00,326.01
             1203.00,326.01 1175.01,302.28 1175.01,302.28
             1170.26,298.04 1164.97,292.95 1165.71,286.00
             1166.31,280.43 1169.89,274.09 1175.01,271.57
             1178.05,270.08 1182.99,269.21 1186.17,270.64
             1191.39,272.98 1194.18,278.27 1201.00,274.83
             1208.25,271.16 1214.43,254.76 1207.72,248.42
             1203.49,244.40 1196.42,244.94 1191.00,245.00
             1168.58,245.27 1133.46,259.27 1138.46,287.00
             1139.33,291.80 1140.67,294.78 1143.00,299.00
             1135.18,300.71 1135.54,306.15 1133.99,313.00
             1132.30,320.45 1129.35,330.36 1125.69,337.00
             1123.53,340.92 1119.30,347.35 1114.04,346.58
             1110.08,346.00 1108.13,341.34 1107.05,338.00
             1104.55,330.27 1103.99,316.29 1104.00,308.00
             1104.00,308.00 1105.00,291.00 1105.00,291.00
             1105.00,291.00 1105.00,270.00 1105.00,270.00
             1105.00,270.00 1106.00,253.00 1106.00,253.00
             1106.02,249.69 1106.06,243.14 1108.58,240.74
             1110.84,238.59 1117.87,238.22 1121.00,237.93
             1121.00,237.93 1142.00,236.41 1142.00,236.41
             1142.00,236.41 1150.00,238.00 1150.00,238.00
             1151.73,230.02 1147.54,226.74 1140.00,225.32
             1128.78,223.22 1117.71,225.47 1107.00,222.00
             1107.00,222.00 1109.93,192.00 1109.93,192.00
             1110.08,189.59 1110.77,182.92 1109.93,181.13
             1107.75,176.81 1095.58,174.33 1091.00,174.09
             1088.95,173.99 1086.43,173.94 1084.93,175.60
             1082.52,178.28 1083.17,185.46 1082.83,189.00
             1082.83,189.00 1082.00,212.00 1082.00,212.00
             1082.00,212.00 1081.00,223.00 1081.00,223.00 Z
           M 855.00,196.53
           C 852.16,197.35 845.40,199.31 844.24,202.22
             843.13,205.02 846.30,208.89 847.90,211.00
             854.54,219.75 861.11,223.24 872.00,222.99
             875.94,222.90 882.96,222.19 884.61,217.89
             886.04,214.20 879.39,204.77 876.81,202.10
             870.82,195.88 863.09,195.21 855.00,196.53 Z
           M 584.00,275.00
           C 582.09,268.29 583.01,246.33 583.00,238.00
             582.99,231.00 582.99,221.99 574.00,221.11
             570.24,220.74 562.17,222.27 560.64,226.22
             560.64,226.22 562.00,242.00 562.00,242.00
             562.00,242.00 562.00,265.00 562.00,265.00
             562.00,265.00 562.00,411.00 562.00,411.00
             562.01,419.64 562.31,422.86 572.00,423.00
             572.00,423.00 580.00,423.00 580.00,423.00
             584.35,422.99 592.52,423.15 594.16,417.91
             595.43,413.81 591.21,412.75 589.44,406.00
             587.59,398.90 586.01,382.44 586.00,375.00
             585.96,347.92 585.60,320.74 590.42,294.00
             591.99,285.30 595.68,269.05 600.65,262.00
             603.25,258.30 607.99,253.44 612.91,256.03
             617.23,258.29 619.30,264.53 620.19,269.00
             622.46,280.30 622.13,294.40 622.00,306.00
             622.00,306.00 621.09,316.00 621.09,316.00
             620.48,324.85 620.03,338.97 613.61,345.78
             605.58,354.30 601.98,343.25 596.96,341.64
             592.59,340.24 587.92,344.05 588.56,350.00
             590.24,365.68 615.52,364.13 625.00,357.36
             638.88,347.46 644.81,324.33 645.00,308.00
             645.23,287.64 644.49,262.40 630.53,246.04
             622.18,236.24 606.33,234.59 597.09,244.04
             589.80,251.50 585.44,264.79 584.00,275.00 Z
           M 120.00,226.00
           C 122.71,246.08 128.56,268.84 129.00,289.00
             129.00,289.00 102.00,289.00 102.00,289.00
             102.00,289.00 112.86,246.00 112.86,246.00
             114.37,240.69 116.80,229.98 120.00,226.00 Z
           M 284.00,243.00
           C 282.19,253.09 283.00,271.96 283.00,283.00
             283.00,302.16 281.02,333.30 290.35,350.00
             295.37,358.99 303.97,362.88 314.00,363.00
             318.83,363.05 323.77,363.48 327.83,360.35
             335.63,354.34 341.19,337.65 342.00,328.00
             345.52,333.57 347.51,340.08 352.18,344.90
             359.38,352.31 371.53,353.79 381.00,350.45
             384.76,349.13 388.46,346.87 392.00,345.00
             393.33,352.34 398.11,361.08 405.00,364.55
             408.08,366.10 411.66,366.02 415.00,366.61
             419.54,367.42 422.20,368.21 427.00,367.96
             440.82,367.23 450.82,347.06 453.00,335.00
             456.43,344.15 457.46,351.20 467.00,356.64
             486.88,367.95 506.53,341.94 506.99,324.00
             507.07,320.75 507.59,314.91 503.90,313.40
             499.94,311.77 499.04,317.47 498.37,320.00
             496.60,326.75 492.50,341.19 485.00,343.34
             481.48,344.35 479.00,341.78 477.41,338.98
             474.59,334.01 474.01,325.67 474.00,320.00
             473.99,314.29 473.66,305.31 474.62,300.00
             475.25,296.46 478.04,288.79 477.48,286.04
             476.50,281.23 471.54,281.18 469.17,276.90
             467.47,273.82 468.01,265.76 468.00,262.00
             467.99,254.62 467.27,247.02 462.47,241.04
             457.70,235.10 455.09,235.88 449.00,233.53
             436.85,228.85 438.46,226.83 424.00,227.00
             411.49,227.15 405.14,234.45 399.76,245.00
             392.53,259.16 388.19,282.08 388.00,298.00
             388.00,298.00 386.90,315.00 386.90,315.00
             386.86,319.08 388.42,323.13 386.90,327.00
             386.90,327.00 383.65,332.00 383.65,332.00
             382.84,333.16 381.73,334.74 380.68,335.69
             372.75,342.76 368.31,329.62 366.89,324.00
             364.24,313.45 363.95,301.84 364.00,291.00
             364.04,283.52 367.51,266.95 365.11,261.04
             362.35,254.25 350.17,254.54 344.00,255.17
             341.47,255.43 337.49,255.97 336.04,258.31
             334.78,260.34 336.99,271.13 337.00,275.00
             337.02,289.66 335.70,310.97 331.84,325.00
             330.44,330.09 326.49,339.75 321.00,341.34
             312.49,343.81 311.06,326.23 311.00,321.00
             311.00,321.00 311.00,257.00 311.00,257.00
             310.97,254.75 311.01,252.21 309.83,250.21
             306.01,243.77 290.72,243.00 284.00,243.00 Z
           M 736.00,340.00
           C 744.62,357.58 763.02,366.25 782.00,366.00
             790.25,365.89 796.31,362.12 801.70,355.99
             807.88,348.96 812.19,340.08 814.35,331.00
             814.35,331.00 816.60,317.17 816.60,317.17
             816.60,317.17 828.10,304.00 828.10,304.00
             832.64,298.01 838.30,287.57 838.91,280.00
             839.11,277.49 839.59,271.76 836.69,270.66
             833.54,269.45 831.14,272.61 829.91,275.02
             829.91,275.02 827.13,282.00 827.13,282.00
             824.43,288.15 820.50,293.09 816.00,298.00
             816.00,288.61 814.38,267.20 810.65,259.00
             807.90,252.96 799.09,243.65 794.00,239.30
             788.13,234.28 780.96,229.24 773.00,229.02
             756.21,228.55 750.34,238.14 743.78,252.00
             738.57,263.01 732.83,282.91 731.28,295.00
             729.69,307.50 730.89,315.64 726.97,328.00
             725.24,333.48 722.04,341.55 718.47,345.98
             716.79,348.07 714.11,350.97 711.10,350.26
             708.19,349.56 706.58,345.55 705.77,343.00
             703.83,336.82 702.93,325.57 703.00,319.00
             703.13,308.32 705.70,291.41 708.38,281.00
             709.53,276.54 713.75,267.18 712.22,263.10
             710.97,259.76 707.14,258.38 704.00,257.44
             700.50,256.39 691.71,255.21 688.00,255.04
             684.94,254.90 680.88,255.26 678.15,253.69
             671.29,249.74 680.03,239.04 671.87,235.60
             666.38,233.28 656.05,237.00 654.81,243.02
             653.61,246.06 654.70,249.85 654.81,253.00
             654.81,253.00 654.81,262.00 654.81,262.00
             654.81,262.00 656.00,274.00 656.00,274.00
             656.00,274.00 655.00,299.00 655.00,299.00
             654.97,305.48 653.51,314.61 652.06,321.00
             651.59,323.39 650.27,328.16 652.06,330.26
             656.73,336.00 662.52,324.43 663.56,321.00
             666.65,310.85 668.08,298.57 669.58,288.00
             669.98,285.16 670.81,276.19 671.73,274.11
             674.17,268.60 683.61,268.84 682.83,279.00
             682.83,279.00 681.00,301.00 681.00,301.00
             681.00,301.00 681.00,312.00 681.00,312.00
             681.16,325.62 684.53,346.00 692.93,356.96
             698.11,363.72 702.90,365.09 711.00,365.00
             713.98,364.96 716.25,364.92 719.00,363.55
             722.18,361.96 725.31,358.79 727.47,356.00
             731.01,351.44 733.53,345.23 736.00,340.00 Z
           M 248.00,240.00
           C 235.34,235.61 236.83,234.98 223.00,235.00
             187.58,235.06 180.96,282.93 181.00,310.00
             181.02,320.98 182.98,337.46 188.53,347.00
             193.37,355.33 199.04,355.82 207.00,359.31
             211.56,361.30 217.12,363.45 222.00,360.98
             228.56,357.65 231.95,347.82 233.00,341.00
             235.24,348.89 233.01,356.98 233.00,365.00
             233.00,365.00 233.00,398.00 233.00,398.00
             232.99,406.29 228.36,418.97 239.00,422.35
             240.94,422.97 242.99,422.97 245.00,423.00
             245.00,423.00 249.00,423.00 249.00,423.00
             252.50,422.98 263.48,422.76 262.84,417.19
             262.65,415.56 260.89,414.40 259.94,412.74
             258.85,410.83 258.39,408.17 258.17,406.00
             258.17,406.00 257.00,385.00 257.00,385.00
             257.00,385.00 257.00,289.00 257.00,289.00
             257.01,284.87 257.23,274.33 260.43,271.60
             264.10,268.47 269.26,272.64 270.71,267.77
             274.34,255.55 256.70,250.37 267.00,240.00
             266.29,237.95 266.12,237.04 264.58,235.33
             262.24,232.72 255.06,228.69 251.65,231.01
             249.19,232.67 248.43,237.28 248.00,240.00 Z
           M 986.00,333.00
           C 993.43,347.32 998.17,358.68 1016.00,362.48
             1019.47,363.23 1026.20,363.02 1030.00,363.00
             1047.56,362.92 1060.41,353.07 1068.69,338.00
             1070.84,334.09 1075.19,325.66 1073.25,321.23
             1071.17,316.47 1066.59,318.64 1064.35,322.06
             1064.35,322.06 1059.54,331.00 1059.54,331.00
             1052.73,342.18 1043.68,349.99 1030.00,346.98
             1027.15,346.36 1024.50,345.57 1022.00,344.01
             1015.96,340.21 1012.61,332.66 1010.75,326.00
             1006.53,310.97 1007.60,291.48 1013.45,277.00
             1016.58,269.25 1024.33,256.18 1034.42,257.98
             1044.63,259.80 1044.92,277.18 1052.04,279.34
             1059.10,281.49 1058.99,271.14 1059.00,267.00
             1059.01,260.86 1060.63,245.69 1055.72,241.72
             1052.79,239.35 1047.64,239.05 1044.00,239.00
             1035.48,238.90 1029.93,239.08 1022.00,242.78
             1004.93,250.76 992.61,262.66 987.04,281.00
             987.04,281.00 983.68,300.00 983.68,300.00
             983.68,300.00 980.24,311.00 980.24,311.00
             977.71,321.24 976.03,331.75 968.79,339.99
             958.95,351.18 942.47,353.24 932.53,340.96
             926.50,333.52 926.00,328.05 926.00,319.00
             931.48,319.00 939.05,319.61 944.00,317.47
             959.19,310.89 968.81,288.85 969.00,273.00
             969.11,263.62 969.17,256.99 963.21,249.04
             953.65,236.28 933.44,235.49 922.09,246.18
             903.95,263.25 899.73,293.38 900.00,317.00
             900.18,331.83 904.85,348.07 917.00,357.47
             923.40,362.42 930.96,364.90 939.00,365.00
             945.77,365.08 951.46,365.42 958.00,363.25
             970.82,359.01 982.33,345.85 986.00,333.00 Z
           M 878.00,333.00
           C 881.82,332.99 889.62,332.96 891.99,329.35
             895.11,324.60 886.60,318.75 878.02,321.00
             875.53,307.22 877.38,282.56 878.02,268.00
             878.50,257.79 883.80,254.30 881.72,250.42
             880.32,247.79 873.79,246.29 871.00,245.66
             865.39,244.41 856.36,242.01 853.60,249.04
             852.89,250.86 853.00,254.01 853.00,256.00
             853.00,256.00 853.00,320.00 853.00,320.00
             852.99,322.53 853.20,325.64 851.98,327.91
             850.78,330.14 846.97,333.16 845.00,335.04
             840.10,339.73 835.19,344.53 831.16,350.00
             818.25,367.49 807.25,390.88 807.00,413.00
             806.91,421.12 808.15,429.74 814.21,435.79
             821.18,442.76 842.29,445.22 852.00,444.99
             866.20,444.64 872.62,431.22 875.20,419.00
             879.92,396.57 878.00,357.33 878.00,333.00 Z
           M 220.00,247.43
           C 226.72,246.43 238.86,249.37 240.67,257.04
             241.48,260.46 238.64,271.05 237.79,275.00
             237.79,275.00 227.37,317.00 227.37,317.00
             225.83,322.94 221.86,340.27 215.83,342.36
             211.76,343.77 208.88,340.22 207.35,336.98
             204.37,330.66 203.01,319.99 203.00,313.00
             202.97,296.91 202.08,280.55 207.03,265.00
             209.36,257.67 212.43,250.42 220.00,247.43 Z
           M 781.00,247.78
           C 792.17,249.90 794.96,264.39 796.05,274.00
             796.67,279.46 799.21,298.87 796.98,302.90
             793.79,308.64 782.91,309.65 777.00,309.41
             764.17,308.88 758.16,302.95 758.00,290.00
             757.86,278.12 758.24,272.93 763.76,262.00
             767.35,254.90 772.52,248.23 781.00,247.78 Z
           M 436.00,251.73
           C 447.80,252.93 449.66,262.93 450.71,273.00
             451.55,280.97 447.41,279.94 446.00,289.00
             443.61,304.43 443.85,319.85 439.28,335.00
             436.87,342.98 431.74,353.37 422.00,353.18
             411.15,352.98 410.01,330.97 410.00,323.00
             409.97,303.04 409.66,289.32 416.69,270.00
             420.07,260.73 425.24,252.17 436.00,251.73 Z
           M 945.00,258.60
           C 954.77,256.61 954.57,264.61 953.83,272.00
             952.84,281.96 948.02,300.07 938.00,304.30
             926.69,309.07 927.68,299.36 928.92,292.00
             930.72,281.31 934.86,264.03 945.00,258.60 Z
           M 1148.00,305.00
           C 1148.00,305.00 1158.00,314.56 1158.00,314.56
             1165.23,320.66 1175.97,327.68 1181.61,335.00
             1187.83,343.07 1183.33,349.39 1174.00,349.26
             1158.90,349.07 1156.74,335.16 1141.00,335.00
             1141.00,335.00 1146.11,315.00 1146.11,315.00
             1146.11,315.00 1148.00,305.00 1148.00,305.00 Z
           M 756.00,322.00
           C 767.26,329.95 783.85,327.83 796.00,323.00
             795.51,333.08 790.28,343.29 780.00,346.37
             767.27,350.18 755.69,343.92 755.04,330.00
             754.90,327.00 754.89,324.80 756.00,322.00 Z
           M 853.00,340.00
           C 853.00,361.17 854.34,387.64 850.19,408.00
             848.65,415.57 844.92,427.95 836.00,429.14
             825.14,430.60 822.10,419.47 822.00,411.00
             821.80,392.87 828.92,373.37 838.20,358.00
             842.21,351.36 846.69,344.62 853.00,340.00 Z" />
</svg>
